<svg version="1.1" id="Calque_1" xmlns="http://www.w3.org/2000/svg" x="0" y="0" viewBox="0 0 145.8 145.4" xml:space="preserve"><style type="text/css"/><path d="M63.3 83v.5H47V83c2.8 0 4.2-1.4 4.2-4.8V65.7c0-3.4-1.4-5.6-4.2-5.3v-.5l12-3.2v21.5c0 3.4 1.5 4.8 4.3 4.8zM81 83v.5H64.7V83c2.9 0 4.3-1.4 4.3-4.8v-14c0-7.1-1.9-7.4-4.8-6.7V57s1.1-.3 2.2-.3c6.6 0 10.4 2.3 10.4 10.5v11c-.1 3.4 1.4 4.8 4.2 4.8zm17.8 15.7v.4h-4.3c-4.2 0-7.7-3.4-7.7-7.7V64.2c0-7.1-1.9-7.4-4.8-6.7V57s1.1-.3 2.2-.3c6.5 0 10.4 2.3 10.4 10.5v26.6c-.1 3.4 1.3 4.9 4.2 4.9z" fill="#a4493d"/></svg>