<svg version="1.1" id="Calque_1" xmlns="http://www.w3.org/2000/svg" x="0" y="0" viewBox="0 0 145.8 145.4" xml:space="preserve"><path d="M42.1 131.8c-.4-1.1-.8-1.7-1.5-2.1-1-.6-1.8-.3-2.1.2-.4.6 0 1.2 1 2.3 1.2 1.2 1.7 2.3 1 3.4-.7 1.2-2.2 1.7-4 .6-.9-.5-1.6-1.2-2.1-1.8l1-.9.1.4c.3.6.7 1.2 1.4 1.6.8.5 1.5.3 1.8-.2.3-.6 0-1.1-.9-2.1-1.4-1.5-1.8-2.5-1.1-3.7s2.4-1.7 4.3-.6c.8.5 1.6 1.2 2 1.9l-.9 1zm-7.1-6.5l-4.3 5.8c1.1.8 1.7 1 2.4 1.2l-.8 1.1-5.7-4.3.8-1.1c.4.6.8 1.1 1.8 1.9l4.3-5.8 1.5 1.2zM20 123l-.7-.7 3.7-3.7c1.4-1.4 3.2-1.2 4.6.1 1.4 1.4 1.7 3.1.2 4.6l-3.7 3.7-1.4-1.4 3.4-3.5c1.1-1.1 1.2-2.2.3-3.1-.9-.9-2-.7-3 .3L20 123zm3.4-8.4l-6.5 4.9-1.7-2.1c-1.9-2.4-1.6-4.9.3-6.4 2-1.5 4.5-1.2 6.3 1.4l1.6 2.2zm-2.2-1.5c-1.2-1.6-2.8-1.6-4.3-.5-1.6 1.2-2 2.8-.7 4.5l.3.4 5.2-3.9-.5-.5zm-3.5-6.6l-7 4.2-1-1.7 7-4.2 1 1.7zm-3.8-7.6c1.1 2.5.2 4.7-2.1 5.7-2.4 1-4.8-.1-5.8-2.3-1.1-2.5-.2-4.7 2.1-5.7 2.4-1.1 4.8 0 5.8 2.3zm-4.8-.6c-2.1.9-2.8 2.4-2.2 3.6.5 1.2 1.9 1.7 4 .8 2.1-.9 2.8-2.4 2.2-3.6-.5-1.2-1.9-1.7-4-.8zm-.6-19l-6.9 1.1v.1l6.9 1.2.2 1.4L2.4 86v.1l6.9-.8.1 1-8.1.9-.3-2.5 5.1-2.3v-.1l-5.6-.9-.4-2.6 8.1-1.4.3 1.9zM.1 68.9V68l5.2.1c2 0 3.1 1.5 3.1 3.5S7.2 75 5.1 74.9L0 74.7v-1.9l4.9.1c1.5 0 2.4-.6 2.4-1.9s-.9-2-2.3-2l-4.9-.1zm9.4-8.4l-6.7 3v.1l6 1-.2.9-8-1.4.1-1.9 6.5-2.9v-.1l-5.8-1 .2-.9 8 1.4-.1 1.8zm.8-4.2l-7.8-2.5.8-2.6c.9-2.9 3.1-4.2 5.4-3.4 2.4.8 3.5 3 2.5 6l-.9 2.5zm0-2.7c.6-1.9-.3-3.2-2.1-3.8-1.9-.6-3.4-.1-4.1 2l-.1.4 6.1 2 .2-.6zm9-20.8c-.4.5-1 .6-1.5.2-.5-.4-.6-1-.2-1.5s1-.6 1.5-.2c.5.4.6 1.1.2 1.5zm14.2-11.3l-4.6-6.7 1.6-1.2c2.4-1.7 5-1.4 6.3.5s1.1 4.5-1.6 6.3l-1.7 1.1zm1.5-1.7c1.7-1.2 1.9-3.1.8-4.6-1.2-1.8-3.2-2.3-5.3-.8l-.3.2 4 5.8.8-.6zm6.3-3.3l-3.9-7.2 1.1-.6 3.9 7.2-1.1.6zm8-3.8L46 10.3l-1.1.4 1.4 3.3-1.2.5L41.9 7l2.3-1.1c1.9-.8 3-.4 3.5.7.4 1 .1 2.1-.8 2.9l3.7 2.6-1.3.6zm-6-5.7l1.3 3.1c.2-.1.5-.2.8-.3 1.1-.5 1.7-1.4 1.2-2.4-.4-1-1.3-1.3-2.5-.8l-.8.4zm9.4 4.5l-2.3-7.9 4.8-1.4.2.8c-.6 0-1.1.1-2.3.4l-1.3.4.9 3 2.6-.7.2.6-2.6.7.9 3.1 1.3-.4c1.2-.3 1.7-.6 2.2-.9l.2.8-4.8 1.5zm13.2-3.4c-.6.5-1.5.9-2.3 1.1-2.6.4-4.7-1-5.1-3.5-.4-2.3 1.1-4.6 3.7-5 1.1-.2 2.1 0 2.9.4l-.3.9c-.7-.6-1.5-.8-2.5-.7-1.6.3-2.8 1.8-2.4 4.1.4 2.3 2.1 3.5 3.9 3.2.7-.1 1.4-.4 1.8-.9l.3.4zm4.4.2L70 .7h-.5c-.9 0-1.5.1-2.1.3V.1l6.5-.1v.9c-.6-.2-1.2-.2-2.1-.2h-.5l.2 7.6h-1.2zm6.2.1L77 .2l1.3.1-.5 8.2-1.3-.1zm4.4-3.8c.4-2.3 2.6-3.9 5-3.5s3.8 2.5 3.4 4.9c-.4 2.3-2.6 3.9-5 3.5S80.5 7 80.9 4.6zm7 1.3c.4-2.3-.7-4-2.2-4.3s-3 .8-3.5 3c-.4 2.3.6 4 2.2 4.3 1.6.3 3.1-.8 3.5-3zm7.5 6.4l-1.8-7.8h-.1l-2.1 6.4-.7-.2L93.3 3l1.3.3 1.8 7.7h.1l2.1-6.4.7.2-2.6 7.7-1.3-.2zm13.3 6.7l.7-2.7-2.5-1.5-2.1 1.8-.6-.4 6-5.1.2-.4 1.5.3-2.1 8.6-1.1-.6zm1.8-7.1l-3.1 2.5 2.1 1.3 1-3.8zm4.6 12l.6-4.1-.9-.7-2.2 2.8-1-.8 5.2-6.3 2 1.6c1.6 1.3 1.8 2.5 1 3.5-.7.9-1.8 1.1-2.9.6l-.6 4.5-1.2-1.1zm2.2-8l-2.1 2.6c.1.2.4.4.6.6.9.8 2 .8 2.7-.1s.6-1.8-.4-2.6l-.8-.5zm1.7 11.6l5.5-5.3-.4-.4c-.6-.6-1.1-1-1.6-1.3l.5-.5 4.5 4.7-.6.6c-.3-.5-.7-1.1-1.3-1.7l-.4-.4-5.5 5.3-.7-1zm4.1 4.7l6.4-5.1.8 1-6.4 5.1-.8-1zm3.6 2.6c-.1.9 0 1.6.5 2.3.7 1.1 1.7 1.1 2.3.7.6-.4.8-1 .4-2.8-.4-1.7-.2-2.6.8-3.2.9-.6 2.3-.5 3.4 1.1.5.8.9 1.7.9 2.2l-.9.2c.1-.8-.1-1.5-.6-2.3-.6-.9-1.4-1-2-.6-.7.4-.7 1.1-.4 2.7.5 1.9.2 2.8-.8 3.4-1 .7-2.5.6-3.7-1.3-.5-.8-.8-1.7-.9-2.3l1-.1zm3.8 8.7l6.8-3.4-.2-.5c-.4-.8-.8-1.3-1.2-1.8l.8-.4 2.9 5.9-.8.4c-.1-.6-.3-1.2-.7-2l-.2-.5-6.8 3.4-.6-1.1zm2.5 5.7l7.6-2.9.5 1.2-7.6 2.9-.5-1.2zm2.5 8.2c-.1-.2-.2-.4-.2-.6-.6-2.3.6-4.5 3-5.1 2.3-.6 4.7.7 5.3 3s-.6 4.5-3 5.1c-1.8.5-3.6-.2-4.7-1.7l-1.3 3.1-.7-.3 1.6-3.5zm4.6 1.1c2.3-.6 3.3-2.3 2.9-3.8-.4-1.5-2-2.4-4.2-1.9-2.3.6-3.4 2.3-3 3.8s2.1 2.5 4.3 1.9zm5.5 9.1l.1.7-5.3.6c-1.9.2-3.2-.8-3.4-2.7-.2-1.9.7-3.1 2.8-3.4l5.2-.6.1 1.3-4.9.5c-1.9.2-2.4 1.2-2.3 2.4.1 1.3 1 1.9 2.5 1.8l5.2-.6zm-8 4.3l8.2.2-.1 5h-.9c.2-.6.3-1.1.3-2.3v-1.4l-3.1-.1-.1 2.7h-.6l.1-2.7-3.3-.1v1.4c0 1.2.1 1.8.2 2.3h-.9l.2-5zm-1.4 14.5l7.9 2.1-.6 2.4c-.5 2.1-1.8 2.8-3 2.4-1.7-.5-2.3-2.1-1.8-3.8.1-.4.2-.7.3-1l-3.2-.8.4-1.3zm7 3.2l-3.6-1-.3.9c-.3 1.1.2 2.1 1.3 2.4s2-.3 2.3-1.4l.3-.9zm-10.8 8.6l4-.7.5-1-3.3-1.3.5-1.2 7.6 3-.9 2.4c-.7 1.9-1.9 2.4-3 2-1-.4-1.6-1.4-1.5-2.6l-4.4.8.5-1.4zm8.3-.3l-3.2-1.2c-.1.2-.3.5-.4.7-.4 1.1-.2 2.2.9 2.6 1.1.4 1.8 0 2.3-1.2l.4-.9zm-9.9 3.7l7.3 3.7-.6 1.1-7.3-3.7.6-1.1zm-4.6 7.9l8 .2v-.1l-5.6-3.6.4-.6 6.8 4.4-.6 1.2-7.9-.2-.1.1 5.6 3.6-.4.6-6.8-4.4.6-1.2zm-3.7 4.9l5.8 4.9.4-.4c.6-.7.9-1.2 1.2-1.8l.6.6-4.3 5-.6-.6c.5-.3 1-.8 1.6-1.4l.3-.4-5.8-4.9.8-1zm-13.4 12.1l1.5.4c0-1.1.2-1.8 1.2-2.5 1.3-.9 2.6-.6 3.3.4.6.8.5 1.9 0 3.1l-.1.2h.1c.9.2 1.7.5 2 1 .6.9.5 1.7-.7 2.7-1.1.8-2.1.5-2.6-.2-.5-.6-.4-1.4-.1-2.3l.1-.3-2.5-.6.2 2.2-.6.4-.2-2.8-2.7-.7 1.1-1zm5.3 1.4l.1-.2c.2-.6.2-1.4-.3-2-.5-.8-1.5-.9-2.2-.5-.6.5-.9 1.1-.9 1.9l3.3.8zm-.1 1.1c-.2.7-.1 1.2.3 1.7.4.6 1 .8 1.5.4.4-.3.5-.8.2-1.3-.3-.4-.8-.5-1.2-.7l-.8-.1zm-19.7 4.8l3.7 4.2h.1l-.2-5.6.8-.3 5.5 6.7-1.3.5-4.3-5.4.2 4.9 1.4 1.6-1.2.5-4.5-5.3.5 6.9-.6.3-.6-8.6.5-.4zm-4.9 1.6l1.9 8-4.8 1.1-.2-.8c.6 0 1.1 0 2.3-.3l1.4-.3-.7-3.1-2.6.6-.1-.6 2.6-.6-.7-3.2-1.4.3c-1.2.3-1.7.5-2.2.8l-.2-.8 4.7-1.1zm-7.3 1.5l.9 8.1-2.4.3c-2.2.3-3-.6-3.1-1.6s.6-1.8 1.6-2.2v-.1c-1.5-.1-2.2-.8-2.3-1.7-.2-1.4 1-2.4 3-2.6l2.3-.2zm-2.2.8c-1.5.2-2 .9-1.9 2 .1.8 1 1.5 2.4 1.4l.8-.1-.4-3.3h-.9zm.5 3.9c-1.3.1-1.7 1-1.7 1.7.1 1 .8 1.5 2.2 1.4l.8-.1-.3-3.1-1 .1zm-21.5-3.2c.6.1.9.7.8 1.3-.1.6-.7 1-1.3.8-.6-.1-.9-.7-.8-1.3.1-.6.7-.9 1.3-.8z" fill="#a4493d"/></svg>